# xmcd
#
# Track frame offsets:
#	150
#	19065
#	31147
#	41777
#	54082
#	62707
#	74537
#	89402
#	106572
#	115567
#	119882
#	131055
#
# Disc length: 1909 seconds
#
# Revision: 1
# Processed by: cddbd v1.5.2PL0 Copyright (c) Steve Scherf et al.
# Submitted via: EZCDAudioConverter 2.7.0.1
#
DISCID=a007730c
DTITLE=Various Artist - Bartender's Blues - Great Saloon Songs
DYEAR=1994
DGENRE=Country
TTITLE0=George Jones - Bartender's Blues
TTITLE1=Mickey Gilley - Headache Tomorrow (Or A Heartache Tonight)
TTITLE2=Mel McDaniel - Big Ole Brew
TTITLE3=Bobby Bare - Tequila Sheila
TTITLE4=Gene Watson - Drinkin' My Way Back Home
TTITLE5=Moe Bandy - Here I Am Drunk Again
TTITLE6=Tom T. Hall - I Like Beer
TTITLE7=Freddy Fender - Whiskey River
TTITLE8=Rex Allen, Jr. - Drink It Down, Lady
TTITLE9=Johnny Russell  - Rednecks, White Socks And Blue Ribbon Beer
TTITLE10=Faron Young - Wine Me Up
TTITLE11=Mickey Gilley - Don't The Girls All Get Prettier At Closing Time
EXTD=
EXTT0=
EXTT1=
EXTT2=
EXTT3=
EXTT4=
EXTT5=
EXTT6=
EXTT7=
EXTT8=
EXTT9=
EXTT10=
EXTT11=
PLAYORDER=
